<svg width="21" height="21" viewBox="0 0 21 21" fill="none" xmlns="http://www.w3.org/2000/svg">
<g clip-path="url(#clip0_2311_2780)">
<path d="M18.9239 16.8384L18.2994 15.8703C18.1744 15.683 18.112 15.4956 18.112 15.277V8.78147C18.112 6.93899 17.3313 5.22143 15.8948 3.94106C14.7393 2.91052 13.2403 2.25472 11.6477 2.12981V1.50524C11.6477 1.1305 11.3354 0.786987 10.9294 0.786987C10.5547 0.786987 10.2112 1.09927 10.2112 1.50524V2.09858C10.1487 2.09858 10.0863 2.09858 10.0238 2.12981C6.40132 2.53578 3.68444 5.44003 3.68444 8.90638V15.277C3.65322 15.5893 3.59076 15.7454 3.5283 15.8391L2.93496 16.8384C2.74759 17.1507 2.74759 17.5254 2.93496 17.8377C3.12233 18.1188 3.43462 18.3061 3.77813 18.3061H10.2424V18.9932C10.2424 19.3679 10.5547 19.7114 10.9607 19.7114C11.3354 19.7114 11.6789 19.3991 11.6789 18.9932V18.3061H18.112C18.4555 18.3061 18.7678 18.1188 18.9552 17.8377C19.1425 17.5254 19.1425 17.1507 18.9239 16.8384ZM4.52761 16.9009L4.74621 16.5261C4.93358 16.2138 5.02727 15.8391 5.08972 15.4019V8.90638C5.08972 6.15828 7.27572 3.84738 10.18 3.53509C11.96 3.34772 13.7088 3.8786 14.9891 5.00283C16.1134 6.00214 16.7379 7.34496 16.7379 8.78147V15.277C16.7379 15.7454 16.8629 16.1826 17.1439 16.6198L17.3313 16.9009H4.52761Z" fill="#637381"/>
</g>
<defs>
<clipPath id="clip0_2311_2780">
<rect width="19.9862" height="19.9862" fill="white" transform="translate(0.936523 0.256104)"/>
</clipPath>
</defs>
</svg>
