<svg width="524" height="621" viewBox="0 0 524 621" fill="none" xmlns="http://www.w3.org/2000/svg">
<g clip-path="url(#clip0_2311_3228)">
<g opacity="0.08">
<path fill-rule="evenodd" clip-rule="evenodd" d="M-129.417 60.427V-76.5416L1.63463 -76.5416V60.427H-129.417ZM-130.418 -77.6034L2.63513 -77.6034V61.489H-130.418V-77.6034Z" fill="url(#paint0_radial_2311_3228)"/>
<path fill-rule="evenodd" clip-rule="evenodd" d="M-129.417 200.581V61.4888H1.63463V200.581H-129.417ZM-130.418 60.4268H2.63513V201.643H-130.418V60.4268Z" fill="url(#paint1_radial_2311_3228)"/>
<path fill-rule="evenodd" clip-rule="evenodd" d="M-129.417 339.674V201.644H1.63463V339.674H-129.417ZM-130.418 200.581H2.63513V340.736H-130.418V200.581Z" fill="url(#paint2_radial_2311_3228)"/>
<path fill-rule="evenodd" clip-rule="evenodd" d="M-129.417 480.89V340.736H1.63463V480.89H-129.417ZM-130.418 339.674H2.63513V481.952H-130.418V339.674Z" fill="url(#paint3_radial_2311_3228)"/>
<path fill-rule="evenodd" clip-rule="evenodd" d="M-129.417 618.921V481.952H1.63463V618.921H-129.417ZM-130.418 480.89H2.63513V619.983H-130.418V480.89Z" fill="url(#paint4_radial_2311_3228)"/>
<path fill-rule="evenodd" clip-rule="evenodd" d="M3.0928 60.427V-76.5416L132.138 -76.5416V60.427H3.0928ZM2.09229 -77.6034L133.138 -77.6034V61.489H2.09229V-77.6034Z" fill="url(#paint5_radial_2311_3228)"/>
<path fill-rule="evenodd" clip-rule="evenodd" d="M3.0928 200.581V61.4888H132.138V200.581H3.0928ZM2.09229 60.4268H133.138V201.643H2.09229V60.4268Z" fill="url(#paint6_radial_2311_3228)"/>
<path fill-rule="evenodd" clip-rule="evenodd" d="M3.0928 339.674V201.644H132.138V339.674H3.0928ZM2.09229 200.581H133.138V340.736H2.09229V200.581Z" fill="url(#paint7_radial_2311_3228)"/>
<path fill-rule="evenodd" clip-rule="evenodd" d="M3.0928 480.89V340.736H132.138V480.89H3.0928ZM2.09229 339.674H133.138V481.952H2.09229V339.674Z" fill="url(#paint8_radial_2311_3228)"/>
<path fill-rule="evenodd" clip-rule="evenodd" d="M3.0928 618.921V481.952H132.138V618.921H3.0928ZM2.09229 480.89H133.138V619.983H2.09229V480.89Z" fill="url(#paint9_radial_2311_3228)"/>
<path fill-rule="evenodd" clip-rule="evenodd" d="M133.138 60.427V-76.5416L263.185 -76.5416V60.427H133.138ZM132.138 -77.6034L264.184 -77.6034V61.489H132.138V-77.6034Z" fill="url(#paint10_radial_2311_3228)"/>
<path fill-rule="evenodd" clip-rule="evenodd" d="M133.138 200.581V61.4888H263.185V200.581H133.138ZM132.138 60.4268H264.184V201.643H132.138V60.4268Z" fill="url(#paint11_radial_2311_3228)"/>
<path fill-rule="evenodd" clip-rule="evenodd" d="M133.138 339.674V201.644H263.185V339.674H133.138ZM132.138 200.581H264.184V340.736H132.138V200.581Z" fill="url(#paint12_radial_2311_3228)"/>
<path fill-rule="evenodd" clip-rule="evenodd" d="M133.138 480.89V340.736H263.185V480.89H133.138ZM132.138 339.674H264.184V481.952H132.138V339.674Z" fill="url(#paint13_radial_2311_3228)"/>
<path fill-rule="evenodd" clip-rule="evenodd" d="M133.138 618.921V481.952H263.185V618.921H133.138ZM132.138 480.89H264.184V619.983H132.138V480.89Z" fill="url(#paint14_radial_2311_3228)"/>
<path fill-rule="evenodd" clip-rule="evenodd" d="M264.184 60.427V-76.5416L393.231 -76.5416V60.427H264.184ZM263.185 -77.6034L394.231 -77.6034V61.489H263.185V-77.6034Z" fill="url(#paint15_radial_2311_3228)"/>
<path fill-rule="evenodd" clip-rule="evenodd" d="M264.184 200.581V61.4888H393.231V200.581H264.184ZM263.185 60.4268H394.231V201.643H263.185V60.4268Z" fill="url(#paint16_radial_2311_3228)"/>
<path fill-rule="evenodd" clip-rule="evenodd" d="M264.184 339.674V201.644H393.231V339.674H264.184ZM263.185 200.581H394.231V340.736H263.185V200.581Z" fill="url(#paint17_radial_2311_3228)"/>
<path fill-rule="evenodd" clip-rule="evenodd" d="M264.184 480.89V340.736H393.231V480.89H264.184ZM263.185 339.674H394.231V481.952H263.185V339.674Z" fill="url(#paint18_radial_2311_3228)"/>
<path fill-rule="evenodd" clip-rule="evenodd" d="M264.184 618.921V481.952H393.231V618.921H264.184ZM263.185 480.89H394.231V619.983H263.185V480.89Z" fill="url(#paint19_radial_2311_3228)"/>
<path fill-rule="evenodd" clip-rule="evenodd" d="M394.231 60.427V-76.5416L522.276 -76.5416V60.427H394.231ZM393.23 -77.6034L523.276 -77.6034V61.489H393.23V-77.6034Z" fill="url(#paint20_radial_2311_3228)"/>
<path fill-rule="evenodd" clip-rule="evenodd" d="M394.231 200.581V61.4888H522.276V200.581H394.231ZM393.23 60.4268H523.276V201.643H393.23V60.4268Z" fill="url(#paint21_radial_2311_3228)"/>
<path fill-rule="evenodd" clip-rule="evenodd" d="M394.231 339.674V201.644H522.276V339.674H394.231ZM393.23 200.581H523.276V340.736H393.23V200.581Z" fill="url(#paint22_radial_2311_3228)"/>
<path fill-rule="evenodd" clip-rule="evenodd" d="M394.231 480.89V340.736H522.276V480.89H394.231ZM393.23 339.674H523.276V481.952H393.23V339.674Z" fill="url(#paint23_radial_2311_3228)"/>
<path fill-rule="evenodd" clip-rule="evenodd" d="M394.231 618.921V481.952H522.276V618.921H394.231ZM393.23 480.89H523.276V619.983H393.23V480.89Z" fill="url(#paint24_radial_2311_3228)"/>
</g>
</g>
<defs>
<radialGradient id="paint0_radial_2311_3228" cx="0" cy="0" r="1" gradientUnits="userSpaceOnUse" gradientTransform="translate(131.638 271.19) rotate(90) scale(348.793 391.638)">
<stop stop-color="#EFEFEF"/>
<stop offset="1" stop-color="#C5C5C5" stop-opacity="0"/>
</radialGradient>
<radialGradient id="paint1_radial_2311_3228" cx="0" cy="0" r="1" gradientUnits="userSpaceOnUse" gradientTransform="translate(131.638 271.19) rotate(90) scale(348.793 391.638)">
<stop stop-color="#EFEFEF"/>
<stop offset="1" stop-color="#C5C5C5" stop-opacity="0"/>
</radialGradient>
<radialGradient id="paint2_radial_2311_3228" cx="0" cy="0" r="1" gradientUnits="userSpaceOnUse" gradientTransform="translate(131.638 271.19) rotate(90) scale(348.793 391.638)">
<stop stop-color="#EFEFEF"/>
<stop offset="1" stop-color="#C5C5C5" stop-opacity="0"/>
</radialGradient>
<radialGradient id="paint3_radial_2311_3228" cx="0" cy="0" r="1" gradientUnits="userSpaceOnUse" gradientTransform="translate(131.638 271.19) rotate(90) scale(348.793 391.638)">
<stop stop-color="#EFEFEF"/>
<stop offset="1" stop-color="#C5C5C5" stop-opacity="0"/>
</radialGradient>
<radialGradient id="paint4_radial_2311_3228" cx="0" cy="0" r="1" gradientUnits="userSpaceOnUse" gradientTransform="translate(131.638 271.19) rotate(90) scale(348.793 391.638)">
<stop stop-color="#EFEFEF"/>
<stop offset="1" stop-color="#C5C5C5" stop-opacity="0"/>
</radialGradient>
<radialGradient id="paint5_radial_2311_3228" cx="0" cy="0" r="1" gradientUnits="userSpaceOnUse" gradientTransform="translate(131.638 271.19) rotate(90) scale(348.793 391.638)">
<stop stop-color="#EFEFEF"/>
<stop offset="1" stop-color="#C5C5C5" stop-opacity="0"/>
</radialGradient>
<radialGradient id="paint6_radial_2311_3228" cx="0" cy="0" r="1" gradientUnits="userSpaceOnUse" gradientTransform="translate(131.638 271.19) rotate(90) scale(348.793 391.638)">
<stop stop-color="#EFEFEF"/>
<stop offset="1" stop-color="#C5C5C5" stop-opacity="0"/>
</radialGradient>
<radialGradient id="paint7_radial_2311_3228" cx="0" cy="0" r="1" gradientUnits="userSpaceOnUse" gradientTransform="translate(131.638 271.19) rotate(90) scale(348.793 391.638)">
<stop stop-color="#EFEFEF"/>
<stop offset="1" stop-color="#C5C5C5" stop-opacity="0"/>
</radialGradient>
<radialGradient id="paint8_radial_2311_3228" cx="0" cy="0" r="1" gradientUnits="userSpaceOnUse" gradientTransform="translate(131.638 271.19) rotate(90) scale(348.793 391.638)">
<stop stop-color="#EFEFEF"/>
<stop offset="1" stop-color="#C5C5C5" stop-opacity="0"/>
</radialGradient>
<radialGradient id="paint9_radial_2311_3228" cx="0" cy="0" r="1" gradientUnits="userSpaceOnUse" gradientTransform="translate(131.638 271.19) rotate(90) scale(348.793 391.638)">
<stop stop-color="#EFEFEF"/>
<stop offset="1" stop-color="#C5C5C5" stop-opacity="0"/>
</radialGradient>
<radialGradient id="paint10_radial_2311_3228" cx="0" cy="0" r="1" gradientUnits="userSpaceOnUse" gradientTransform="translate(131.638 271.19) rotate(90) scale(348.793 391.638)">
<stop stop-color="#EFEFEF"/>
<stop offset="1" stop-color="#C5C5C5" stop-opacity="0"/>
</radialGradient>
<radialGradient id="paint11_radial_2311_3228" cx="0" cy="0" r="1" gradientUnits="userSpaceOnUse" gradientTransform="translate(131.638 271.19) rotate(90) scale(348.793 391.638)">
<stop stop-color="#EFEFEF"/>
<stop offset="1" stop-color="#C5C5C5" stop-opacity="0"/>
</radialGradient>
<radialGradient id="paint12_radial_2311_3228" cx="0" cy="0" r="1" gradientUnits="userSpaceOnUse" gradientTransform="translate(131.638 271.19) rotate(90) scale(348.793 391.638)">
<stop stop-color="#EFEFEF"/>
<stop offset="1" stop-color="#C5C5C5" stop-opacity="0"/>
</radialGradient>
<radialGradient id="paint13_radial_2311_3228" cx="0" cy="0" r="1" gradientUnits="userSpaceOnUse" gradientTransform="translate(131.638 271.19) rotate(90) scale(348.793 391.638)">
<stop stop-color="#EFEFEF"/>
<stop offset="1" stop-color="#C5C5C5" stop-opacity="0"/>
</radialGradient>
<radialGradient id="paint14_radial_2311_3228" cx="0" cy="0" r="1" gradientUnits="userSpaceOnUse" gradientTransform="translate(131.638 271.19) rotate(90) scale(348.793 391.638)">
<stop stop-color="#EFEFEF"/>
<stop offset="1" stop-color="#C5C5C5" stop-opacity="0"/>
</radialGradient>
<radialGradient id="paint15_radial_2311_3228" cx="0" cy="0" r="1" gradientUnits="userSpaceOnUse" gradientTransform="translate(131.638 271.19) rotate(90) scale(348.793 391.638)">
<stop stop-color="#EFEFEF"/>
<stop offset="1" stop-color="#C5C5C5" stop-opacity="0"/>
</radialGradient>
<radialGradient id="paint16_radial_2311_3228" cx="0" cy="0" r="1" gradientUnits="userSpaceOnUse" gradientTransform="translate(131.638 271.19) rotate(90) scale(348.793 391.638)">
<stop stop-color="#EFEFEF"/>
<stop offset="1" stop-color="#C5C5C5" stop-opacity="0"/>
</radialGradient>
<radialGradient id="paint17_radial_2311_3228" cx="0" cy="0" r="1" gradientUnits="userSpaceOnUse" gradientTransform="translate(131.638 271.19) rotate(90) scale(348.793 391.638)">
<stop stop-color="#EFEFEF"/>
<stop offset="1" stop-color="#C5C5C5" stop-opacity="0"/>
</radialGradient>
<radialGradient id="paint18_radial_2311_3228" cx="0" cy="0" r="1" gradientUnits="userSpaceOnUse" gradientTransform="translate(131.638 271.19) rotate(90) scale(348.793 391.638)">
<stop stop-color="#EFEFEF"/>
<stop offset="1" stop-color="#C5C5C5" stop-opacity="0"/>
</radialGradient>
<radialGradient id="paint19_radial_2311_3228" cx="0" cy="0" r="1" gradientUnits="userSpaceOnUse" gradientTransform="translate(131.638 271.19) rotate(90) scale(348.793 391.638)">
<stop stop-color="#EFEFEF"/>
<stop offset="1" stop-color="#C5C5C5" stop-opacity="0"/>
</radialGradient>
<radialGradient id="paint20_radial_2311_3228" cx="0" cy="0" r="1" gradientUnits="userSpaceOnUse" gradientTransform="translate(131.638 271.19) rotate(90) scale(348.793 391.638)">
<stop stop-color="#EFEFEF"/>
<stop offset="1" stop-color="#C5C5C5" stop-opacity="0"/>
</radialGradient>
<radialGradient id="paint21_radial_2311_3228" cx="0" cy="0" r="1" gradientUnits="userSpaceOnUse" gradientTransform="translate(131.638 271.19) rotate(90) scale(348.793 391.638)">
<stop stop-color="#EFEFEF"/>
<stop offset="1" stop-color="#C5C5C5" stop-opacity="0"/>
</radialGradient>
<radialGradient id="paint22_radial_2311_3228" cx="0" cy="0" r="1" gradientUnits="userSpaceOnUse" gradientTransform="translate(131.638 271.19) rotate(90) scale(348.793 391.638)">
<stop stop-color="#EFEFEF"/>
<stop offset="1" stop-color="#C5C5C5" stop-opacity="0"/>
</radialGradient>
<radialGradient id="paint23_radial_2311_3228" cx="0" cy="0" r="1" gradientUnits="userSpaceOnUse" gradientTransform="translate(131.638 271.19) rotate(90) scale(348.793 391.638)">
<stop stop-color="#EFEFEF"/>
<stop offset="1" stop-color="#C5C5C5" stop-opacity="0"/>
</radialGradient>
<radialGradient id="paint24_radial_2311_3228" cx="0" cy="0" r="1" gradientUnits="userSpaceOnUse" gradientTransform="translate(131.638 271.19) rotate(90) scale(348.793 391.638)">
<stop stop-color="#EFEFEF"/>
<stop offset="1" stop-color="#C5C5C5" stop-opacity="0"/>
</radialGradient>
<clipPath id="clip0_2311_3228">
<rect width="783.276" height="696.379" fill="white" transform="translate(-260 -76.3966)"/>
</clipPath>
</defs>
</svg>
