<svg width="16" height="17" viewBox="0 0 16 17" fill="none" xmlns="http://www.w3.org/2000/svg">
<g opacity="0.35">
<path d="M8.76184 8.31103L14.7305 2.34236C14.9507 2.12221 14.9507 1.77974 14.7305 1.55959C14.5104 1.33943 14.1679 1.33943 13.9477 1.55959L7.97906 7.52826L2.01039 1.55959C1.79024 1.33943 1.44777 1.33943 1.22762 1.55959C1.00746 1.77974 1.00746 2.12221 1.22762 2.34236L7.19629 8.31103L1.22762 14.2797C1.00746 14.4999 1.00746 14.8423 1.22762 15.0625C1.32546 15.1603 1.47223 15.2337 1.61901 15.2337C1.76578 15.2337 1.91255 15.1848 2.01039 15.0625L7.97906 9.09381L13.9477 15.0625C14.0456 15.1603 14.1924 15.2337 14.3391 15.2337C14.4859 15.2337 14.6327 15.1848 14.7305 15.0625C14.9507 14.8423 14.9507 14.4999 14.7305 14.2797L8.76184 8.31103Z" fill="#111928"/>
</g>
</svg>
