<svg width="25" height="24" viewBox="0 0 25 24" fill="none" xmlns="http://www.w3.org/2000/svg">
<path fill-rule="evenodd" clip-rule="evenodd" d="M2.85014 6.00001C2.85014 5.11636 3.56648 4.40002 4.45014 4.40002H20.4501C21.3338 4.40002 22.0501 5.11637 22.0501 6.00002V10.6H21.4501C20.6769 10.6 20.0501 11.2268 20.0501 12C20.0501 12.7732 20.6769 13.4 21.4501 13.4H22.0501V18C22.0501 18.8837 21.3338 19.6 20.4501 19.6H4.45014C3.56649 19.6 2.85014 18.8837 2.85014 18L2.8501 13.4H3.45011C4.22331 13.4 4.85011 12.7732 4.85011 12C4.85011 11.2268 4.22331 10.6 3.45011 10.6H2.8501L2.85014 6.00001ZM4.45014 5.60002C4.22922 5.60002 4.05014 5.77911 4.05014 6.00002L4.05011 9.4696C5.19679 9.74047 6.05011 10.7706 6.05011 12C6.05011 13.2295 5.19679 14.2596 4.05011 14.5305L4.05014 18C4.05014 18.2209 4.22922 18.4 4.45014 18.4H20.4501C20.671 18.4 20.8501 18.2209 20.8501 18V14.5305C19.7034 14.2596 18.8501 13.2295 18.8501 12C18.8501 10.7706 19.7034 9.74046 20.8501 9.4696V6.00002C20.8501 5.77911 20.671 5.60002 20.4501 5.60002H4.45014Z" fill="#637381"/>
<path fill-rule="evenodd" clip-rule="evenodd" d="M11.4391 10.3478C11.3957 10.4487 11.3006 10.5177 11.1913 10.5279L9.33959 10.6996C9.07746 10.7239 8.97152 11.05 9.1693 11.2237L10.5664 12.451C10.6489 12.5235 10.6852 12.6353 10.6611 12.7424L10.2522 14.5565C10.1943 14.8133 10.4717 15.0148 10.698 14.8804L12.297 13.931C12.3914 13.8749 12.5089 13.8749 12.6033 13.931L14.2023 14.8804C14.4287 15.0148 14.706 14.8133 14.6481 14.5565L14.2393 12.7424C14.2151 12.6353 14.2514 12.5235 14.3339 12.451L15.731 11.2237C15.9288 11.05 15.8229 10.7239 15.5607 10.6996L13.7091 10.5279C13.5997 10.5177 13.5047 10.4487 13.4612 10.3478L12.7257 8.63984C12.6216 8.39805 12.2788 8.39805 12.1746 8.63984L11.4391 10.3478ZM12.4502 10.5283L12.3576 10.7433C12.1694 11.1804 11.7574 11.4797 11.2836 11.5236L11.0505 11.5452L11.2264 11.6998C11.5839 12.0138 11.7412 12.4981 11.6366 12.9622L11.5851 13.1907L11.7864 13.0711C12.1956 12.8282 12.7048 12.8282 13.1139 13.0711L13.3152 13.1907L13.2638 12.9622C13.1591 12.4981 13.3165 12.0138 13.674 11.6998L13.8499 11.5452L13.6167 11.5236C13.1429 11.4797 12.731 11.1804 12.5428 10.7433L12.4502 10.5283Z" fill="#637381"/>
</svg>
