<svg width="25" height="24" viewBox="0 0 25 24" fill="none" xmlns="http://www.w3.org/2000/svg">
<path fill-rule="evenodd" clip-rule="evenodd" d="M2.81543 6.00002C2.81543 5.11637 3.53178 4.40002 4.41543 4.40002H20.4154C21.2991 4.40002 22.0154 5.11637 22.0154 6.00002V18C22.0154 18.8788 21.3101 19.6 20.4216 19.6H4.41222C3.52605 19.6 2.81543 18.8812 2.81543 18V6.00002ZM4.41543 5.60002C4.19452 5.60002 4.01543 5.77911 4.01543 6.00002V18C4.01543 18.2235 4.19382 18.4 4.41222 18.4H20.4216C20.6377 18.4 20.8154 18.2258 20.8154 18V6.00002C20.8154 5.77911 20.6363 5.60002 20.4154 5.60002H4.41543ZM11.8154 8.40002V7.00002H13.0154V8.40002H15.0209V9.60002H11.0154V11.4H14.3154C14.702 11.4 15.0154 11.7134 15.0154 12.1V14.9C15.0154 15.2866 14.702 15.6 14.3154 15.6H13.0154V17H11.8154V15.6H9.81387V14.4H13.8154V12.6H10.5154C10.1288 12.6 9.81543 12.2866 9.81543 11.9V9.10002C9.81543 8.71342 10.1288 8.40002 10.5154 8.40002H11.8154Z" fill="#637381"/>
</svg>
