<svg width="23" height="24" viewBox="0 0 23 24" fill="none" xmlns="http://www.w3.org/2000/svg">
<path d="M7.62384 1.95239H3.16207C1.96758 1.95239 0.983887 2.93609 0.983887 4.13058V8.59234C0.983887 9.78683 1.96758 10.7705 3.16207 10.7705H7.62384C8.81832 10.7705 9.80202 9.78683 9.80202 8.59234V4.16571C9.83715 2.93609 8.85346 1.95239 7.62384 1.95239ZM8.25621 8.62747C8.25621 8.97879 7.97516 9.25985 7.62384 9.25985H3.16207C2.81075 9.25985 2.52969 8.97879 2.52969 8.62747V4.16571C2.52969 3.81439 2.81075 3.53333 3.16207 3.53333H7.62384C7.97516 3.53333 8.25621 3.81439 8.25621 4.16571V8.62747Z" fill="#5475E5"/>
<path d="M19.3231 1.95239H14.8613C13.6668 1.95239 12.6831 2.93609 12.6831 4.13058V8.59234C12.6831 9.78683 13.6668 10.7705 14.8613 10.7705H19.3231C20.5175 10.7705 21.5012 9.78683 21.5012 8.59234V4.16571C21.5012 2.93609 20.5175 1.95239 19.3231 1.95239ZM19.9554 8.62747C19.9554 8.97879 19.6744 9.25985 19.3231 9.25985H14.8613C14.51 9.25985 14.2289 8.97879 14.2289 8.62747V4.16571C14.2289 3.81439 14.51 3.53333 14.8613 3.53333H19.3231C19.6744 3.53333 19.9554 3.81439 19.9554 4.16571V8.62747Z" fill="#5475E5"/>
<path d="M7.62384 13.1595H3.16207C1.96758 13.1595 0.983887 14.1432 0.983887 15.3377V19.7995C0.983887 20.994 1.96758 21.9777 3.16207 21.9777H7.62384C8.81832 21.9777 9.80202 20.994 9.80202 19.7995V15.3729C9.83715 14.1432 8.85346 13.1595 7.62384 13.1595ZM8.25621 19.8346C8.25621 20.1859 7.97516 20.467 7.62384 20.467H3.16207C2.81075 20.467 2.52969 20.1859 2.52969 19.8346V15.3729C2.52969 15.0215 2.81075 14.7405 3.16207 14.7405H7.62384C7.97516 14.7405 8.25621 15.0215 8.25621 15.3729V19.8346Z" fill="#5475E5"/>
<path d="M19.3231 13.1595H14.8613C13.6668 13.1595 12.6831 14.1432 12.6831 15.3377V19.7995C12.6831 20.994 13.6668 21.9777 14.8613 21.9777H19.3231C20.5175 21.9777 21.5012 20.994 21.5012 19.7995V15.3729C21.5012 14.1432 20.5175 13.1595 19.3231 13.1595ZM19.9554 19.8346C19.9554 20.1859 19.6744 20.467 19.3231 20.467H14.8613C14.51 20.467 14.2289 20.1859 14.2289 19.8346V15.3729C14.2289 15.0215 14.51 14.7405 14.8613 14.7405H19.3231C19.6744 14.7405 19.9554 15.0215 19.9554 15.3729V19.8346Z" fill="#5475E5"/>
</svg>
