<svg width="19" height="22" viewBox="0 0 19 22" fill="none" xmlns="http://www.w3.org/2000/svg">
<path d="M15.6302 0.926514C13.8766 0.926514 12.4557 2.37948 12.4557 4.1716C12.4557 4.45808 12.4917 4.73557 12.5585 5.00022C12.482 5.01657 12.4084 5.04428 12.3401 5.08244L9.4239 6.70883L5.71248 8.87608C5.67541 8.89803 5.64019 8.92295 5.60714 8.95059C5.11999 8.65489 4.56089 8.49889 3.99102 8.49967C2.23872 8.49967 0.817871 9.95135 0.817871 11.7435C0.817871 13.5356 2.23872 14.9886 3.99102 14.9886C4.43269 14.9882 4.8693 14.8945 5.27224 14.7136C5.67518 14.5328 6.03534 14.2688 6.32912 13.939L9.42519 15.7003L12.5508 17.4436C12.4874 17.703 12.4554 17.9691 12.4557 18.2362C12.4557 20.0283 13.8766 21.4813 15.6289 21.4813C17.3825 21.4813 18.8033 20.0283 18.8033 18.2362C18.8033 16.4428 17.3825 14.9898 15.6302 14.9898C15.1934 14.9901 14.7615 15.0817 14.3622 15.2587C13.9628 15.4357 13.6049 15.6942 13.3113 16.0176L10.1934 14.2794L7.0768 12.5091C7.26573 11.7064 7.14942 10.862 6.7505 10.1402L10.1973 8.12583L13.1006 6.50714C13.1696 6.46827 13.2324 6.41935 13.2869 6.36197C13.5806 6.69342 13.9411 6.9589 14.3447 7.14092C14.7484 7.32293 15.1861 7.41736 15.6289 7.41797C17.3825 7.41797 18.8033 5.96501 18.8033 4.1716C18.8033 2.37948 17.3825 0.926514 15.6302 0.926514Z" fill="#A1ADCD"/>
</svg>
