<svg width="22" height="21" viewBox="0 0 22 21" fill="none" xmlns="http://www.w3.org/2000/svg">
<path fill-rule="evenodd" clip-rule="evenodd" d="M5.67166 2.96071C5.67166 3.64214 5.40096 4.29566 4.91911 4.77751C4.43727 5.25936 3.78374 5.53005 3.10231 5.53005C2.42087 5.53005 1.76735 5.25936 1.2855 4.77751C0.803657 4.29566 0.532959 3.64214 0.532959 2.96071C0.532959 2.27927 0.803657 1.62575 1.2855 1.1439C1.76735 0.662056 2.42087 0.391357 3.10231 0.391357C3.78374 0.391357 4.43727 0.662056 4.91911 1.1439C5.40096 1.62575 5.67166 2.27927 5.67166 2.96071ZM13.3797 2.96071C13.3797 3.64214 13.109 4.29566 12.6272 4.77751C12.1453 5.25936 11.4918 5.53005 10.8104 5.53005C10.1289 5.53005 9.4754 5.25936 8.99355 4.77751C8.5117 4.29566 8.241 3.64214 8.241 2.96071C8.241 2.27927 8.5117 1.62575 8.99355 1.1439C9.4754 0.662056 10.1289 0.391357 10.8104 0.391357C11.4918 0.391357 12.1453 0.662056 12.6272 1.1439C13.109 1.62575 13.3797 2.27927 13.3797 2.96071ZM18.5184 5.53005C19.1998 5.53005 19.8534 5.25936 20.3352 4.77751C20.817 4.29566 21.0877 3.64214 21.0877 2.96071C21.0877 2.27927 20.817 1.62575 20.3352 1.1439C19.8534 0.662056 19.1998 0.391357 18.5184 0.391357C17.837 0.391357 17.1834 0.662056 16.7016 1.1439C16.2197 1.62575 15.9491 2.27927 15.9491 2.96071C15.9491 3.64214 16.2197 4.29566 16.7016 4.77751C17.1834 5.25936 17.837 5.53005 18.5184 5.53005ZM5.67166 10.6688C5.67166 11.3502 5.40096 12.0037 4.91911 12.4856C4.43727 12.9674 3.78374 13.2381 3.10231 13.2381C2.42087 13.2381 1.76735 12.9674 1.2855 12.4856C0.803657 12.0037 0.532959 11.3502 0.532959 10.6688C0.532959 9.98732 0.803657 9.33379 1.2855 8.85195C1.76735 8.3701 2.42087 8.0994 3.10231 8.0994C3.78374 8.0994 4.43727 8.3701 4.91911 8.85195C5.40096 9.33379 5.67166 9.98732 5.67166 10.6688ZM10.8104 13.2381C11.4918 13.2381 12.1453 12.9674 12.6272 12.4856C13.109 12.0037 13.3797 11.3502 13.3797 10.6688C13.3797 9.98732 13.109 9.33379 12.6272 8.85195C12.1453 8.3701 11.4918 8.0994 10.8104 8.0994C10.1289 8.0994 9.4754 8.3701 8.99355 8.85195C8.5117 9.33379 8.241 9.98732 8.241 10.6688C8.241 11.3502 8.5117 12.0037 8.99355 12.4856C9.4754 12.9674 10.1289 13.2381 10.8104 13.2381ZM21.0877 10.6688C21.0877 11.3502 20.817 12.0037 20.3352 12.4856C19.8534 12.9674 19.1998 13.2381 18.5184 13.2381C17.837 13.2381 17.1834 12.9674 16.7016 12.4856C16.2197 12.0037 15.9491 11.3502 15.9491 10.6688C15.9491 9.98732 16.2197 9.33379 16.7016 8.85195C17.1834 8.3701 17.837 8.0994 18.5184 8.0994C19.1998 8.0994 19.8534 8.3701 20.3352 8.85195C20.817 9.33379 21.0877 9.98732 21.0877 10.6688ZM10.8104 20.9461C11.4918 20.9461 12.1453 20.6754 12.6272 20.1936C13.109 19.7118 13.3797 19.0582 13.3797 18.3768C13.3797 17.6954 13.109 17.0418 12.6272 16.56C12.1453 16.0781 11.4918 15.8074 10.8104 15.8074C10.1289 15.8074 9.4754 16.0781 8.99355 16.56C8.5117 17.0418 8.241 17.6954 8.241 18.3768C8.241 19.0582 8.5117 19.7118 8.99355 20.1936C9.4754 20.6754 10.1289 20.9461 10.8104 20.9461Z" fill="#A1ADCD"/>
</svg>
