<svg width="16" height="21" viewBox="0 0 16 21" fill="none" xmlns="http://www.w3.org/2000/svg">
<path d="M7.81059 0.385986C4.97659 0.385986 2.67189 2.69326 2.67189 5.52982C2.67189 8.31371 4.84684 10.5657 7.68083 10.6634C7.75968 10.6525 7.83965 10.6525 7.9185 10.6634H7.99429C9.32504 10.6184 10.5861 10.0575 11.5108 9.09949C12.4355 8.14146 12.9514 6.86133 12.9493 5.52982C12.9486 4.16669 12.4072 2.85951 11.4438 1.89515C10.4804 0.930785 9.17372 0.388028 7.81059 0.385986ZM13.3732 13.3047C10.3183 11.4958 5.3363 11.4958 2.25951 13.3047C0.869489 14.132 0.102539 15.251 0.102539 16.447C0.102539 17.643 0.86949 18.7517 2.24795 19.5687C3.78185 20.4834 5.79622 20.9408 7.81059 20.9408C9.82495 20.9408 11.8393 20.4834 13.3732 19.5687C14.7517 18.7427 15.5186 17.634 15.5186 16.4277C15.5084 15.2304 14.7517 14.1217 13.3732 13.306V13.3047Z" fill="#A1ADCD"/>
</svg>
