<svg width="57" height="56" viewBox="0 0 57 56" fill="none" xmlns="http://www.w3.org/2000/svg">
<g filter="url(#filter0_d_2311_3349)">
<rect x="7" y="4.05334" width="43.4483" height="43.4483" rx="9.65517" fill="white" shape-rendering="crispEdges"/>
<g clip-path="url(#clip0_2311_3349)">
<mask id="mask0_2311_3349" style="mask-type:luminance" maskUnits="userSpaceOnUse" x="16" y="13" width="25" height="25">
<path d="M40.7932 13.7084H16.6553V37.8464H40.7932V13.7084Z" fill="white"/>
</mask>
<g mask="url(#mask0_2311_3349)">
<path d="M28.7242 37.8464C35.3897 37.8464 40.7932 32.4428 40.7932 25.7774C40.7932 19.1119 35.3897 13.7084 28.7242 13.7084C22.0587 13.7084 16.6553 19.1119 16.6553 25.7774C16.6553 32.4428 22.0587 37.8464 28.7242 37.8464Z" fill="url(#paint0_linear_2311_3349)"/>
<path fill-rule="evenodd" clip-rule="evenodd" d="M22.1176 25.6501C25.6359 24.1172 27.982 23.1066 29.1559 22.6184C32.5076 21.2243 33.2041 20.9821 33.658 20.9741C33.7579 20.9724 33.9811 20.9971 34.1256 21.1144C34.2478 21.2135 34.2813 21.3473 34.2974 21.4413C34.3136 21.5352 34.3336 21.7492 34.3177 21.9164C34.136 23.8248 33.3501 28.4559 32.9502 30.5933C32.781 31.4978 32.4479 31.8011 32.1255 31.8306C31.4246 31.8952 30.8924 31.3676 30.2136 30.9226C29.1513 30.2262 28.5513 29.7928 27.5202 29.1133C26.3286 28.3281 27.101 27.8965 27.7801 27.1912C27.9578 27.0066 31.0459 24.1978 31.1056 23.943C31.1131 23.9111 31.1201 23.7924 31.0495 23.7296C30.9789 23.6669 30.8747 23.6884 30.7996 23.7054C30.6931 23.7296 28.9962 24.8512 25.7089 27.0702C25.2272 27.401 24.7909 27.5621 24.4 27.5536C23.9691 27.5444 23.1402 27.31 22.5239 27.1097C21.7681 26.864 21.1674 26.7342 21.2197 26.3168C21.247 26.0996 21.5463 25.8773 22.1176 25.6501Z" fill="white"/>
</g>
</g>
</g>
<defs>
<filter id="filter0_d_2311_3349" x="0.965517" y="0.432655" width="55.5172" height="55.5172" filterUnits="userSpaceOnUse" color-interpolation-filters="sRGB">
<feFlood flood-opacity="0" result="BackgroundImageFix"/>
<feColorMatrix in="SourceAlpha" type="matrix" values="0 0 0 0 0 0 0 0 0 0 0 0 0 0 0 0 0 0 127 0" result="hardAlpha"/>
<feOffset dy="2.41379"/>
<feGaussianBlur stdDeviation="3.01724"/>
<feComposite in2="hardAlpha" operator="out"/>
<feColorMatrix type="matrix" values="0 0 0 0 0.439216 0 0 0 0 0.478431 0 0 0 0 0.592157 0 0 0 0.03 0"/>
<feBlend mode="normal" in2="BackgroundImageFix" result="effect1_dropShadow_2311_3349"/>
<feBlend mode="normal" in="SourceGraphic" in2="effect1_dropShadow_2311_3349" result="shape"/>
</filter>
<linearGradient id="paint0_linear_2311_3349" x1="28.7242" y1="13.7084" x2="28.7242" y2="37.6674" gradientUnits="userSpaceOnUse">
<stop stop-color="#2AABEE"/>
<stop offset="1" stop-color="#229ED9"/>
</linearGradient>
<clipPath id="clip0_2311_3349">
<rect width="24.1379" height="24.1379" fill="white" transform="translate(16.6553 13.7084)"/>
</clipPath>
</defs>
</svg>
