<svg width="98" height="52" viewBox="0 0 98 52" fill="none" xmlns="http://www.w3.org/2000/svg">
<rect x="0.726807" y="18.6537" width="91.6158" height="33.1941" rx="14.2261" transform="rotate(-11.1535 0.726807 18.6537)" fill="#AC6FF7"/>
<path d="M22.8836 31.6596C22.6121 30.2824 22.6254 29.0425 22.9236 27.9397C23.2341 26.8345 23.807 25.916 24.6423 25.1842C25.4751 24.44 26.5428 23.9395 27.8455 23.6826C29.1358 23.4282 30.3074 23.4872 31.3604 23.8596C32.4109 24.2196 33.2896 24.8519 33.9964 25.7566C34.7156 26.6588 35.2097 27.7922 35.4788 29.1569C35.7503 30.5341 35.7258 31.7827 35.4053 32.9027C35.0948 34.0079 34.5231 34.9327 33.6903 35.6769C32.8575 36.4211 31.7959 36.9203 30.5057 37.1747C29.203 37.4316 28.0251 37.3738 26.9722 37.0014C25.9316 36.6266 25.0579 35.9868 24.3511 35.0822C23.6419 34.1652 23.1527 33.0243 22.8836 31.6596ZM25.396 31.1642C25.6871 32.6406 26.2309 33.732 27.0275 34.4385C27.8242 35.145 28.849 35.3747 30.1021 35.1277C31.3179 34.8879 32.1726 34.2876 32.6663 33.3268C33.16 32.3659 33.2612 31.1473 32.9702 29.6709C32.6766 28.1821 32.1204 27.0931 31.3014 26.4039C30.4948 25.7123 29.4774 25.4876 28.2491 25.7297C26.9961 25.9768 26.1339 26.5721 25.6626 27.5157C25.1913 28.4593 25.1024 29.6754 25.396 31.1642ZM38.6035 35.3848L37.2129 28.3317C37.137 27.9471 37.0476 27.5587 36.9445 27.1666C36.8414 26.7745 36.7271 26.391 36.6017 26.0162L38.8535 25.5723L39.4065 27.3965L39.1832 27.4406C39.3513 26.7243 39.6926 26.135 40.2073 25.6727C40.7194 25.1979 41.3601 24.8847 42.1293 24.733C43.2335 24.5153 44.1259 24.6616 44.8065 25.1719C45.4871 25.6821 45.957 26.5948 46.2163 27.9099L47.3501 33.6603L45.0239 34.119L43.9121 28.4802C43.7629 27.7234 43.5076 27.2131 43.1463 26.9492C42.7949 26.6705 42.3276 26.5886 41.7445 26.7036C41.0249 26.8454 40.4983 27.1813 40.1645 27.7111C39.8307 28.2409 39.7372 28.878 39.884 29.6224L40.9297 34.9262L38.6035 35.3848ZM49.3514 33.2657L46.6509 19.5689L48.9771 19.1103L51.6776 32.8071L49.3514 33.2657ZM53.7385 32.4008L51.8856 23.0028L54.2118 22.5442L56.0647 31.9421L53.7385 32.4008ZM51.4067 21.2606L50.9591 18.9902L53.5459 18.4802L53.9935 20.7506L51.4067 21.2606ZM58.1256 31.5358L56.735 24.4827C56.6592 24.0981 56.5697 23.7097 56.4666 23.3176C56.3635 22.9255 56.2493 22.542 56.1238 22.1672L58.3756 21.7232L58.9286 23.5475L58.7053 23.5915C58.8734 22.8753 59.2148 22.286 59.7294 21.8236C60.2415 21.3489 60.8822 21.0357 61.6514 20.884C62.7556 20.6663 63.648 20.8126 64.3286 21.3228C65.0092 21.8331 65.4792 22.7458 65.7384 24.0609L66.8722 29.8113L64.546 30.2699L63.4342 24.6312C63.285 23.8744 63.0297 23.364 62.6684 23.1002C62.317 22.8214 61.8497 22.7396 61.2666 22.8545C60.547 22.9964 60.0204 23.3323 59.6866 23.8621C59.3529 24.3919 59.2594 25.029 59.4061 25.7734L60.4518 31.0771L58.1256 31.5358ZM73.451 28.7075C71.8753 29.0182 70.5553 28.8273 69.4908 28.135C68.4263 27.4427 67.7448 26.3397 67.4464 24.8261C67.2532 23.846 67.2767 22.952 67.517 22.1442C67.7572 21.3364 68.1782 20.6605 68.7798 20.1166C69.3939 19.5702 70.16 19.2065 71.078 19.0254C71.9837 18.8469 72.7784 18.89 73.4622 19.1547C74.1459 19.4195 74.7114 19.8686 75.1585 20.5022C75.6181 21.1334 75.9396 21.9142 76.123 22.8447L76.2441 23.4589L69.3957 24.8091L69.1535 23.5809L74.3457 22.5572L74.0807 22.8801C73.9095 22.0116 73.5925 21.3846 73.1298 20.9989C72.6795 20.6108 72.107 20.4852 71.4122 20.6222C70.643 20.7739 70.1013 21.1642 69.7871 21.7933C69.4853 22.4199 69.431 23.2233 69.6243 24.2034L69.672 24.4453C69.8726 25.4626 70.2711 26.1767 70.8677 26.5875C71.4742 26.9835 72.2365 27.091 73.1546 26.91C73.6881 26.8048 74.1709 26.6387 74.603 26.4117C75.0451 26.1699 75.4452 25.8461 75.8035 25.4404L76.8002 26.8679C76.4245 27.3157 75.9461 27.7 75.3649 28.0208C74.7837 28.3417 74.1457 28.5705 73.451 28.7075Z" fill="white"/>
</svg>
