<svg width="49" height="50" viewBox="0 0 49 50" fill="none" xmlns="http://www.w3.org/2000/svg">
<rect x="0.620605" y="0.979736" width="48.2759" height="48.2759" rx="9.65517" fill="#2856FF"/>
<path fill-rule="evenodd" clip-rule="evenodd" d="M32.5828 34.5198L32.584 34.5174L32.6045 34.4655L36.2252 16.2172V16.1593C36.2252 15.7043 36.0563 15.3072 35.6906 15.0694C35.3707 14.8606 35.0026 14.8462 34.7444 14.8655C34.4716 14.886 34.2145 14.9548 34.0371 15.0103C33.9392 15.0418 33.8426 15.0773 33.7475 15.1165L33.7318 15.1225L13.5525 23.0398H13.5476C13.4863 23.0622 13.4259 23.0872 13.3666 23.1146C13.2231 23.1791 13.0854 23.2558 12.9551 23.3439C12.6956 23.5225 12.2019 23.9425 12.2852 24.61C12.354 25.1615 12.7354 25.5115 12.9913 25.6937C13.1543 25.8086 13.3306 25.9034 13.5163 25.9762L13.5283 25.9798L13.538 25.9834L17.0682 27.1722C17.0561 27.3931 17.0778 27.6187 17.1369 27.842L18.9051 34.5512C19.0014 34.9173 19.21 35.244 19.5017 35.4854C19.7933 35.7267 20.1533 35.8706 20.531 35.8967C20.9087 35.9228 21.285 35.8298 21.6071 35.6309C21.9292 35.432 22.1808 35.1371 22.3266 34.7877L25.0868 31.8356L29.8299 35.4708L29.8963 35.4998C30.3271 35.6881 30.729 35.7472 31.0971 35.6977C31.4652 35.647 31.7573 35.4925 31.977 35.3175C32.2312 35.112 32.4341 34.85 32.5695 34.5524L32.5792 34.5306L32.5816 34.5234L32.5828 34.5198ZM18.887 27.381C18.8674 27.3065 18.872 27.2278 18.9002 27.1562C18.9285 27.0846 18.9788 27.0238 19.0438 26.9827L31.0175 19.3793C31.0175 19.3793 31.7223 18.9508 31.697 19.3793C31.697 19.3793 31.8225 19.4541 31.4459 19.8053C31.0875 20.1408 22.9107 28.0351 22.0828 28.8329C22.0368 28.8776 22.0045 28.9346 21.9899 28.997L20.6551 34.0901L18.887 27.3798V27.381Z" fill="white"/>
</svg>
